<svg xmlns="http://www.w3.org/2000/svg" width="581.241" height="348.093" viewBox="0 0 581.241 348.093"><defs><clipPath id="c" clipPathUnits="userSpaceOnUse"><path d="M-15.04 29.701h29.76V-.059h-29.76" clip-rule="evenodd"/></clipPath><clipPath id="b" clipPathUnits="userSpaceOnUse"><path d="M2940 202.16h200.918V0H2940Z"/></clipPath><clipPath id="e" clipPathUnits="userSpaceOnUse"><path d="M-15.04 29.701h29.76V-.059h-29.76" clip-rule="evenodd"/></clipPath><clipPath id="d" clipPathUnits="userSpaceOnUse"><path d="M2940 202.16h200.918V0H2940Z"/></clipPath><clipPath id="g" clipPathUnits="userSpaceOnUse"><path d="M-15.04 29.701h29.76V-.059h-29.76" clip-rule="evenodd"/></clipPath><clipPath id="f" clipPathUnits="userSpaceOnUse"><path d="M2940 202.16h200.918V0H2940Z"/></clipPath><clipPath id="i" clipPathUnits="userSpaceOnUse"><path d="M-15.04 29.701h29.76V-.059h-29.76" clip-rule="evenodd"/></clipPath><clipPath id="h" clipPathUnits="userSpaceOnUse"><path d="M2940 202.16h200.918V0H2940Z"/></clipPath><clipPath id="k" clipPathUnits="userSpaceOnUse"><path d="M-15.04 29.701h29.76V-.059h-29.76" clip-rule="evenodd"/></clipPath><clipPath id="j" clipPathUnits="userSpaceOnUse"><path d="M2940 202.16h200.918V0H2940Z"/></clipPath><clipPath id="a" clipPathUnits="userSpaceOnUse"><path d="M2940 202.16h200.92V0H2940Z" clip-rule="evenodd"/></clipPath><clipPath id="n" clipPathUnits="userSpaceOnUse"><path d="M.085 24.668h29.76v-29.76H.085" clip-rule="evenodd"/></clipPath><clipPath id="m" clipPathUnits="userSpaceOnUse"><path d="M2950.304 348.093h406.798V11.155h-406.798Z"/></clipPath><clipPath id="p" clipPathUnits="userSpaceOnUse"><path d="M.085 24.668h29.76v-29.76H.085" clip-rule="evenodd"/></clipPath><clipPath id="o" clipPathUnits="userSpaceOnUse"><path d="M2950.304 348.093h406.798V11.155h-406.798Z"/></clipPath><clipPath id="r" clipPathUnits="userSpaceOnUse"><path d="M.085 24.668h29.76v-29.76H.085" clip-rule="evenodd"/></clipPath><clipPath id="q" clipPathUnits="userSpaceOnUse"><path d="M2950.304 348.093h406.798V11.155h-406.798Z"/></clipPath><clipPath id="t" clipPathUnits="userSpaceOnUse"><path d="M.085 24.668h29.76v-29.76H.085" clip-rule="evenodd"/></clipPath><clipPath id="s" clipPathUnits="userSpaceOnUse"><path d="M2950.304 348.093h406.798V11.155h-406.798Z"/></clipPath><clipPath id="v" clipPathUnits="userSpaceOnUse"><path d="M.085 24.668h29.76v-29.76H.085" clip-rule="evenodd"/></clipPath><clipPath id="u" clipPathUnits="userSpaceOnUse"><path d="M2950.304 348.093h406.798V11.155h-406.798Z"/></clipPath><clipPath id="x" clipPathUnits="userSpaceOnUse"><path d="M.085 24.668h29.76v-29.76H.085" clip-rule="evenodd"/></clipPath><clipPath id="w" clipPathUnits="userSpaceOnUse"><path d="M2950.304 348.093h406.798V11.155h-406.798Z"/></clipPath><clipPath id="z" clipPathUnits="userSpaceOnUse"><path d="M.085 24.668h29.76v-29.76H.085" clip-rule="evenodd"/></clipPath><clipPath id="y" clipPathUnits="userSpaceOnUse"><path d="M2950.304 348.093h406.798V11.155h-406.798Z"/></clipPath><clipPath id="B" clipPathUnits="userSpaceOnUse"><path d="M.085 24.668h29.76v-29.76H.085" clip-rule="evenodd"/></clipPath><clipPath id="A" clipPathUnits="userSpaceOnUse"><path d="M2950.304 348.093h406.798V11.155h-406.798Z"/></clipPath><clipPath id="D" clipPathUnits="userSpaceOnUse"><path d="M.085 24.668h29.76v-29.76H.085" clip-rule="evenodd"/></clipPath><clipPath id="C" clipPathUnits="userSpaceOnUse"><path d="M2950.304 348.093h406.798V11.155h-406.798Z"/></clipPath><clipPath id="l" clipPathUnits="userSpaceOnUse"><path d="M2940 348.093h422.68V9.813H2940Z" clip-rule="evenodd"/></clipPath><clipPath id="G" clipPathUnits="userSpaceOnUse"><path d="M-14.833 8.852h29.76v-29.76h-29.76" clip-rule="evenodd"/></clipPath><clipPath id="F" clipPathUnits="userSpaceOnUse"><path d="M2940 348.093h203.734V226.432H2940Z"/></clipPath><clipPath id="I" clipPathUnits="userSpaceOnUse"><path d="M-14.833 8.852h29.76v-29.76h-29.76" clip-rule="evenodd"/></clipPath><clipPath id="H" clipPathUnits="userSpaceOnUse"><path d="M2940 348.093h203.734V226.432H2940Z"/></clipPath><clipPath id="K" clipPathUnits="userSpaceOnUse"><path d="M-14.833 8.852h29.76v-29.76h-29.76" clip-rule="evenodd"/></clipPath><clipPath id="J" clipPathUnits="userSpaceOnUse"><path d="M2940 348.093h203.734V226.432H2940Z"/></clipPath><clipPath id="E" clipPathUnits="userSpaceOnUse"><path d="M2940 348.093h203.733v-127.65H2940Z" clip-rule="evenodd"/></clipPath><clipPath id="N" clipPathUnits="userSpaceOnUse"><path d="M.085 8.913h29.76v-29.76H.085" clip-rule="evenodd"/></clipPath><clipPath id="M" clipPathUnits="userSpaceOnUse"><path d="M3166.48 348.093h406.798V225.616H3166.48Z"/></clipPath><clipPath id="P" clipPathUnits="userSpaceOnUse"><path d="M.085 8.913h29.76v-29.76H.085" clip-rule="evenodd"/></clipPath><clipPath id="O" clipPathUnits="userSpaceOnUse"><path d="M3166.48 348.093h406.798V225.616H3166.48Z"/></clipPath><clipPath id="R" clipPathUnits="userSpaceOnUse"><path d="M.085 8.913h29.76v-29.76H.085" clip-rule="evenodd"/></clipPath><clipPath id="Q" clipPathUnits="userSpaceOnUse"><path d="M3166.48 348.093h406.798V225.616H3166.48Z"/></clipPath><clipPath id="T" clipPathUnits="userSpaceOnUse"><path d="M.085 8.913h29.76v-29.76H.085" clip-rule="evenodd"/></clipPath><clipPath id="S" clipPathUnits="userSpaceOnUse"><path d="M3166.48 348.093h406.798V225.616H3166.48Z"/></clipPath><clipPath id="L" clipPathUnits="userSpaceOnUse"><path d="M3166.48 348.093h406.787V224.252H3166.48Z" clip-rule="evenodd"/></clipPath></defs><g clip-path="url(#a)" transform="translate(-2940)"><g clip-path="url(#b)"><path d="m1.326 14.854 2.933 2.933 2.933-2.933-2.933-2.933Z" clip-path="url(#c)" style="fill:#fff;fill-opacity:1;fill-rule:nonzero;stroke:none" transform="matrix(13.61138 0 0 -13.61161 2940 202.16)"/></g><g clip-path="url(#d)"><path d="M-6.873 6.655.54 14.067l2.932-2.933-7.412-7.412Z" clip-path="url(#e)" style="fill:#fff;fill-opacity:1;fill-rule:nonzero;stroke:none" transform="matrix(13.61138 0 0 -13.61161 2940 202.16)"/></g><g clip-path="url(#f)"><path d="m5.046 11.135 2.933 2.933 2.994-2.994L8.04 8.141Z" clip-path="url(#g)" style="fill:#fff;fill-opacity:1;fill-rule:nonzero;stroke:none" transform="matrix(13.61138 0 0 -13.61161 2940 202.16)"/></g><g clip-path="url(#h)"><path d="m-3.154 2.935 7.412 7.413 2.994-2.994L-.16-.06Z" clip-path="url(#i)" style="fill:#fff;fill-opacity:1;fill-rule:nonzero;stroke:none" transform="matrix(13.61138 0 0 -13.61161 2940 202.16)"/></g><g clip-path="url(#j)"><path d="m8.766 14.854 2.96 2.96 2.993-2.994-2.96-2.96z" clip-path="url(#k)" style="fill:#fff;fill-opacity:1;fill-rule:nonzero;stroke:none" transform="matrix(13.61138 0 0 -13.61161 2940 202.16)"/></g></g><g clip-path="url(#l)" transform="translate(-2940)"><g clip-path="url(#m)"><path d="m16.451 9.82 2.933 2.934 2.933-2.933-2.933-2.933Z" clip-path="url(#n)" style="fill:#fff;fill-opacity:1;fill-rule:nonzero;stroke:none" transform="matrix(13.61166 0 0 -13.61202 2950.304 348.093)"/></g><g clip-path="url(#o)"><path d="m8.295 17.978 2.933 2.933 7.369-7.368-2.933-2.933z" clip-path="url(#p)" style="fill:#fff;fill-opacity:1;fill-rule:nonzero;stroke:none" transform="matrix(13.61166 0 0 -13.61202 2950.304 348.093)"/></g><g clip-path="url(#q)"><path d="m20.17 13.542 2.96 2.96 2.933-2.933-2.96-2.96z" clip-path="url(#r)" style="fill:#fff;fill-opacity:1;fill-rule:nonzero;stroke:none" transform="matrix(13.61166 0 0 -13.61202 2950.304 348.093)"/></g><g clip-path="url(#s)"><path d="m8.252 1.622 7.413 7.412 2.932-2.933-7.412-7.412Z" clip-path="url(#t)" style="fill:#fff;fill-opacity:1;fill-rule:nonzero;stroke:none" transform="matrix(13.61166 0 0 -13.61202 2950.304 348.093)"/></g><g clip-path="url(#u)"><path d="m20.171 6.102 2.933 2.933 2.994-2.994-2.933-2.933Z" clip-path="url(#v)" style="fill:#fff;fill-opacity:1;fill-rule:nonzero;stroke:none" transform="matrix(13.61166 0 0 -13.61202 2950.304 348.093)"/></g><g clip-path="url(#w)"><path d="M.085 9.787 7.498 17.2l7.379-7.38-7.413-7.412Z" clip-path="url(#x)" style="fill:#fff;fill-opacity:1;fill-rule:nonzero;stroke:none" transform="matrix(13.61166 0 0 -13.61202 2950.304 348.093)"/></g><g clip-path="url(#y)"><path d="m11.971-2.098 7.412 7.413 2.994-2.994-7.412-7.413Z" clip-path="url(#z)" style="fill:#fff;fill-opacity:1;fill-rule:nonzero;stroke:none" transform="matrix(13.61166 0 0 -13.61202 2950.304 348.093)"/></g><g clip-path="url(#A)"><path d="m12.005 21.707 2.96 2.96 7.379-7.378-2.96-2.96z" clip-path="url(#B)" style="fill:#fff;fill-opacity:1;fill-rule:nonzero;stroke:none" transform="matrix(13.61166 0 0 -13.61202 2950.304 348.093)"/></g><g clip-path="url(#C)"><path d="m23.891 9.821 2.96 2.96 2.993-2.993-2.96-2.96z" clip-path="url(#D)" style="fill:#fff;fill-opacity:1;fill-rule:nonzero;stroke:none" transform="matrix(13.61166 0 0 -13.61202 2950.304 348.093)"/></g></g><g clip-path="url(#E)" transform="translate(-2940)"><g clip-path="url(#F)"><path d="m-6.622 2.163 2.932 2.933L3.68-2.273.746-5.206Z" clip-path="url(#G)" style="fill:#fff;fill-opacity:1;fill-rule:nonzero;stroke:none" transform="matrix(13.6113 0 0 -13.61266 2940 348.093)"/></g><g clip-path="url(#H)"><path d="m5.253-2.273 2.96 2.96 2.932-2.933-2.96-2.96z" clip-path="url(#I)" style="fill:#fff;fill-opacity:1;fill-rule:nonzero;stroke:none" transform="matrix(13.6113 0 0 -13.61266 2940 348.093)"/></g><g clip-path="url(#J)"><path d="m-2.912 5.892 2.96 2.96 7.379-7.379-2.96-2.96z" clip-path="url(#K)" style="fill:#fff;fill-opacity:1;fill-rule:nonzero;stroke:none" transform="matrix(13.6113 0 0 -13.61266 2940 348.093)"/></g></g><g clip-path="url(#L)" transform="translate(-2940)"><g clip-path="url(#M)"><path d="m8.295 2.224 2.933 2.933 7.369-7.37-2.933-2.932Z" clip-path="url(#N)" style="fill:#fff;fill-opacity:1;fill-rule:nonzero;stroke:none" transform="matrix(13.61166 0 0 -13.6116 3166.48 348.093)"/></g><g clip-path="url(#O)"><path d="m20.17-2.213 2.96 2.96 2.933-2.932-2.96-2.96z" clip-path="url(#P)" style="fill:#fff;fill-opacity:1;fill-rule:nonzero;stroke:none" transform="matrix(13.61166 0 0 -13.6116 3166.48 348.093)"/></g><g clip-path="url(#Q)"><path d="m.085-5.968 7.413 7.413 7.379-7.379-7.413-7.412Z" clip-path="url(#R)" style="fill:#fff;fill-opacity:1;fill-rule:nonzero;stroke:none" transform="matrix(13.61166 0 0 -13.6116 3166.48 348.093)"/></g><g clip-path="url(#S)"><path d="m12.005 5.953 2.96 2.96 7.379-7.38-2.96-2.959z" clip-path="url(#T)" style="fill:#fff;fill-opacity:1;fill-rule:nonzero;stroke:none" transform="matrix(13.61166 0 0 -13.6116 3166.48 348.093)"/></g></g></svg>