<svg width="1555" height="404" viewBox="0 0 1555 404" fill="none" xmlns="http://www.w3.org/2000/svg">
<path d="M122.068 170.431L73.0771 400.018H31.6719L70.4385 218.788L0 268.286L8.83691 225.121L85.6553 170.615L85.916 170.431H122.068ZM86.2344 171.431L9.7373 225.709L1.48438 266.021L71.9502 216.504L32.9082 399.018H72.2676L120.833 171.431H86.2344Z" fill="#000"/>
<path d="M266.104 232.058C266.104 222.423 264.515 213.781 261.338 206.132L261.025 205.395C257.745 197.809 253.174 191.316 247.312 185.916L246.741 185.397C240.796 180.068 233.66 176.029 225.332 173.28L224.522 173.018C216.118 170.148 206.918 168.668 196.925 168.578L195.955 168.574C181.777 168.574 169.715 170.479 159.77 174.288C149.824 177.885 141.148 183.069 133.741 189.841L125.807 228.248C135.031 219.843 144.355 213.226 153.778 208.396L154.691 207.934C164.425 202.855 175.006 200.315 186.433 200.315L187.381 200.324C197.131 200.504 205.491 203.463 212.461 209.203C219.867 214.917 223.57 223.699 223.57 235.549L223.564 236.402C223.455 245.217 221.659 254.032 218.174 262.847C214.788 271.734 208.44 281.151 199.129 291.097L198.266 292.031C189.239 301.717 176.936 312.198 161.356 323.473C145.274 335.111 124.748 348.019 99.7783 362.197L91.5254 399.018H239.441L246.741 366.642H143.898C164.848 355.426 182.941 344.528 198.177 333.947C213.624 323.155 226.321 312.363 236.267 301.571C246.106 290.912 253.464 280.152 258.339 269.294L258.804 268.242C263.518 257.173 265.949 245.507 266.097 233.246L266.104 232.058ZM267.104 232.058C267.103 244.886 264.645 257.081 259.724 268.635L259.721 268.641C254.8 279.979 247.219 291.182 237.002 302.25L237.001 302.249C226.995 313.106 214.241 323.945 198.75 334.768L198.747 334.769C184.326 344.783 167.363 355.073 147.861 365.642H247.992L240.24 400.018H90.2764L98.8994 361.547L99.2842 361.328C124.235 347.161 144.728 334.273 160.771 322.663C176.821 311.048 189.354 300.3 198.392 290.422L198.399 290.413L199.258 289.487C208.044 279.943 214.019 270.943 217.239 262.49L217.244 262.479L217.572 261.636C220.908 252.927 222.57 244.233 222.57 235.549C222.57 223.918 218.947 215.47 211.85 209.995L211.837 209.985L211.825 209.976C204.826 204.212 196.38 201.315 186.433 201.315C175.16 201.315 164.739 203.819 155.153 208.82L155.146 208.824L155.139 208.828C145.5 213.647 135.946 220.362 126.479 228.987L124.204 231.061L132.828 189.321L133.066 189.103C140.571 182.241 149.357 176.993 159.412 173.354L160.364 172.997C170.267 169.371 182.139 167.574 195.955 167.574C206.42 167.574 216.053 169.069 224.846 172.071C233.634 174.861 241.161 179.051 247.409 184.652C253.657 190.254 258.502 197.04 261.943 204.997C265.392 212.971 267.104 221.998 267.104 232.058Z" fill="#000"/>
<path d="M385.237 332.995C385.237 321.168 381.412 312.448 373.883 306.648C366.304 300.811 354.818 297.81 339.26 297.81H309.692V263.751H340.529V264.751H310.692V296.81H339.26C370.578 296.81 386.237 308.872 386.237 332.995C386.237 344.845 382.111 354.156 373.858 360.928L373.074 361.553C364.868 367.908 353.385 371.085 338.625 371.085V370.085C353.726 370.085 365.212 366.728 373.224 360.154C381.218 353.595 385.237 344.583 385.237 332.995ZM378.572 231.104C378.572 221.939 375.404 214.788 369.099 209.538L368.479 209.036L368.471 209.031L368.464 209.025C361.727 203.514 351.832 200.681 338.625 200.681C324.98 200.681 313.391 202.991 303.823 207.566L303.815 207.57L303.808 207.573C294.151 211.982 285.446 217.436 277.688 223.936L276.047 225.312V187.456L276.422 187.155C283.933 181.146 293.034 176.334 303.705 172.706C314.419 169.063 327.444 167.257 342.752 167.257C354.261 167.257 364.628 168.748 373.843 171.747C383.249 174.74 391.196 178.919 397.657 184.301C404.327 189.68 409.395 196.144 412.848 203.688C416.516 211.241 418.344 219.539 418.344 228.565C418.344 236.086 417.055 242.789 414.449 248.651C412.08 254.458 408.848 259.627 404.754 264.152L404.746 264.161L404.737 264.17C400.639 268.484 395.894 272.042 390.508 274.843L390.494 274.851L390.479 274.857C386.676 276.683 382.762 278.129 378.741 279.201C383.775 280.246 388.629 281.896 393.301 284.147C399.754 286.944 405.36 290.714 410.106 295.458C415.065 299.992 418.943 305.49 421.742 311.94C424.773 318.436 426.279 325.672 426.279 333.63C426.279 344.339 424.244 354.011 420.152 362.626L420.147 362.636C416.062 371.022 410.257 378.329 402.746 384.552L402.739 384.558L402.733 384.562C395.215 390.577 386.211 395.181 375.738 398.387C365.26 401.594 353.626 403.191 340.847 403.191C325.404 403.191 312.109 401.497 300.982 398.084L299.912 397.748L299.907 397.746C289.176 394.238 280.299 389.916 273.305 384.763L272.634 384.262L272.237 383.961V345.795L273.873 347.142C280.984 352.998 289.789 358.349 300.304 363.187C310.724 367.771 323.486 370.085 338.625 370.085V371.085C323.389 371.085 310.481 368.757 299.9 364.102C289.32 359.235 280.432 353.839 273.237 347.914V383.464C280.22 388.754 289.214 393.199 300.218 396.796C311.433 400.393 324.976 402.191 340.847 402.191C353.146 402.191 364.354 400.702 374.47 397.724L375.445 397.431C385.814 394.257 394.702 389.706 402.108 383.781C409.283 377.836 414.87 370.899 418.867 362.968L419.249 362.197C423.27 353.733 425.279 344.21 425.279 333.63C425.279 325.8 423.798 318.712 420.836 312.363C418.085 306.015 414.276 300.619 409.409 296.175C404.754 291.519 399.252 287.816 392.903 285.065C386.767 282.103 380.313 280.198 373.541 279.352C379.254 278.294 384.757 276.495 390.047 273.956C395.337 271.205 399.992 267.714 404.013 263.481C408.033 259.038 411.207 253.959 413.535 248.245C416.074 242.532 417.344 235.972 417.344 228.565C417.344 219.678 415.545 211.531 411.948 204.125C408.562 196.719 403.589 190.37 397.029 185.08C390.879 179.955 383.34 175.922 374.409 172.981L373.541 172.7C364.726 169.83 354.819 168.35 343.819 168.261L342.752 168.257C327.516 168.257 314.608 170.055 304.027 173.652L303.04 173.993C292.886 177.549 284.222 182.197 277.047 187.937V223.17C284.876 216.61 293.659 211.108 303.393 206.664C313.127 202.009 324.871 199.681 338.625 199.681C351.956 199.681 362.114 202.538 369.097 208.251C376.08 213.753 379.572 221.371 379.572 231.104L379.562 232.109C379.344 242.417 375.749 250.441 368.779 256.181C361.809 261.715 352.754 264.569 341.614 264.742L340.529 264.751V263.751C351.998 263.751 361.174 260.939 368.148 255.404C375.071 249.701 378.572 241.648 378.572 231.104Z" fill="#000"/>
<path d="M642.327 170.431L611.855 315.807H641.388L633.965 349.549H604.455L593.98 400.018H552.57L563.362 349.549H460.183L466.812 320.709L466.868 320.469L595.882 170.431H642.327ZM596.341 171.431L467.787 320.934L461.438 348.549H564.599L553.807 399.018H593.166L603.641 348.549H633.16L640.144 316.807H610.624L641.096 171.431H596.341ZM571.265 316.807H505.242L593.166 214.282L571.265 316.807ZM507.417 315.807H570.456L591.367 217.915L507.417 315.807Z" fill="#000"/>
<path d="M1373.05 336.804C1373.05 322.414 1369.14 310.459 1361.31 300.937C1353.48 291.202 1342.9 284.007 1329.57 279.352C1340.57 274.908 1349.25 268.348 1355.59 259.672C1361.95 251.267 1365.23 240.876 1365.42 228.5L1365.43 227.296C1365.43 217.773 1363.53 209.309 1359.72 201.902C1356.03 194.727 1351.05 188.744 1344.78 183.952L1344.17 183.492C1337.61 178.625 1329.78 174.922 1320.68 172.383C1312.15 170.002 1303.06 168.738 1293.41 168.589L1291.48 168.574C1280.9 168.574 1271.06 169.949 1261.96 172.7L1261.11 172.942C1252.37 175.479 1244.82 179.207 1238.47 184.127C1231.91 188.994 1226.72 195.131 1222.91 202.537C1219.32 209.943 1217.52 218.408 1217.52 227.931C1217.52 240.627 1220.69 251.313 1227.04 259.989C1233.6 268.665 1242.28 275.119 1253.07 279.352C1239.74 284.219 1229.16 291.626 1221.33 301.571L1220.6 302.49C1213.26 312.061 1209.58 323.817 1209.58 337.757L1209.59 338.706C1209.71 348.482 1211.72 357.264 1215.61 365.054C1219.63 372.883 1225.24 379.656 1232.44 385.369C1239.84 390.871 1248.52 395.103 1258.46 398.065C1268.3 400.73 1278.94 402.104 1290.37 402.188L1291.48 402.191C1302.75 402.191 1313.23 400.802 1322.92 398.021L1323.85 397.748C1333.8 394.786 1342.37 390.554 1349.56 385.052C1356.97 379.338 1362.68 372.46 1366.7 364.419C1370.8 356.424 1372.92 347.536 1373.04 337.754L1373.05 336.804ZM1333.96 332.36C1333.96 320.29 1330.17 311.069 1322.68 304.554L1321.95 303.932L1321.94 303.923C1314.11 297.333 1303.99 294.001 1291.48 294.001C1278.75 294.001 1268.41 297.336 1260.37 303.932C1252.39 310.477 1248.35 319.9 1248.35 332.36C1248.35 344.814 1252.39 354.235 1260.36 360.779C1268.4 367.169 1278.74 370.402 1291.48 370.402V371.402L1290.27 371.393C1277.91 371.194 1267.73 367.917 1259.73 361.562C1251.48 354.791 1247.35 345.057 1247.35 332.36C1247.35 320.06 1251.23 310.541 1258.97 303.802L1259.73 303.158C1267.99 296.387 1278.57 293.001 1291.48 293.001L1292.66 293.011C1304.82 293.216 1314.79 296.598 1322.58 303.158C1330.83 309.93 1334.96 319.664 1334.96 332.36L1334.95 333.542C1334.7 345.662 1330.58 355.003 1322.58 361.562C1314.54 368.122 1304.17 371.402 1291.48 371.402V370.402C1303.99 370.402 1314.12 367.172 1321.95 360.789L1322.68 360.167C1330.17 353.652 1333.96 344.431 1333.96 332.36ZM1327.61 232.057C1327.61 221.938 1324.22 214.201 1317.5 208.707L1317.49 208.697L1317.48 208.687C1310.93 202.955 1302.29 200.046 1291.48 200.046C1280.88 200.046 1272.23 202.951 1265.46 208.696L1265.45 208.702L1265.45 208.707C1258.73 214.201 1255.34 221.938 1255.34 232.057C1255.34 242.072 1258.53 249.742 1264.83 255.202L1265.45 255.725C1272.22 261.264 1280.87 264.068 1291.48 264.068V265.068L1290.47 265.06C1280.13 264.887 1271.58 262.033 1264.81 256.498C1257.83 250.785 1254.34 242.637 1254.34 232.057C1254.34 221.688 1257.83 213.647 1264.81 207.934C1271.8 202.009 1280.68 199.046 1291.48 199.046L1292.5 199.055C1303.03 199.234 1311.58 202.194 1318.14 207.934C1325.12 213.647 1328.61 221.688 1328.61 232.057L1328.6 233.042C1328.39 243.144 1324.9 250.963 1318.14 256.498C1311.37 262.212 1302.48 265.068 1291.48 265.068V264.068C1302.3 264.068 1310.94 261.26 1317.49 255.733L1317.5 255.729L1317.5 255.725C1324.21 250.235 1327.61 242.395 1327.61 232.057ZM1366.42 228.517C1366.22 241.066 1362.9 251.672 1356.39 260.274C1350.38 268.481 1342.34 274.813 1332.29 279.282C1344.65 283.999 1354.59 291 1362.08 300.301C1370.08 310.031 1374.05 322.223 1374.05 336.804L1374.04 337.768C1373.91 347.689 1371.77 356.732 1367.59 364.876C1363.5 373.053 1357.69 380.043 1350.17 385.843L1350.17 385.846C1342.87 391.431 1334.18 395.714 1324.14 398.706C1314.09 401.699 1303.2 403.191 1291.48 403.191C1279.92 403.191 1269.15 401.893 1259.17 399.287L1258.2 399.03L1258.19 399.027L1258.18 399.023C1248.45 396.125 1239.9 392.017 1232.55 386.69L1231.84 386.172L1231.83 386.162L1231.81 386.151C1224.51 380.353 1218.81 373.472 1214.72 365.511L1214.72 365.501C1210.62 357.304 1208.58 348.049 1208.58 337.757C1208.58 323.18 1212.55 310.889 1220.54 300.952C1228.03 291.441 1237.98 284.233 1250.36 279.313C1240.82 275.169 1232.98 269.205 1226.88 261.414L1226.24 260.593L1226.24 260.587L1226.23 260.58C1219.74 251.703 1216.52 240.8 1216.52 227.931C1216.52 218.281 1218.34 209.663 1222.01 202.101L1222.02 202.09L1222.02 202.08C1225.9 194.54 1231.19 188.284 1237.87 183.324C1244.54 178.166 1252.48 174.309 1261.67 171.742C1270.87 168.96 1280.81 167.574 1291.48 167.574C1301.6 167.574 1311.14 168.775 1320.08 171.183L1320.95 171.42C1329.86 173.907 1337.59 177.505 1344.13 182.229L1344.76 182.689C1351.24 187.495 1356.4 193.516 1360.24 200.742L1360.61 201.445C1364.5 209.012 1366.43 217.637 1366.43 227.296L1366.42 228.517Z" fill="#000"/>
<path d="M1011.73 310.459C1011.73 300.004 1010.14 290.84 1006.96 282.967L1006.65 282.209C1003.37 274.419 998.898 267.92 993.235 262.712L992.684 262.212C986.944 257.087 980.112 253.252 972.188 250.709L971.417 250.467C963.627 247.802 955.043 246.428 945.664 246.345L944.754 246.341C921.265 246.341 902.114 254.594 887.302 271.1C889.484 261.577 892.503 252.705 896.359 244.484L897.142 242.85C901.242 234.445 906.235 227.131 912.122 220.911L912.695 220.312C918.832 213.964 925.921 209.098 933.962 205.712C942.215 202.115 951.42 200.315 961.577 200.315L963.241 200.329C971.548 200.466 979.67 201.625 987.605 203.808C996.07 205.924 1004.11 209.521 1011.73 214.6L1016.81 180.953C1010.88 177.144 1003.69 174.076 995.223 171.748C987.287 169.566 977.771 168.407 966.674 168.271L964.434 168.257C942.849 168.257 924.333 172.806 908.886 181.905C893.438 191.004 880.742 202.855 870.796 217.456L869.872 218.831C860.397 233.098 853.404 249.25 848.895 267.29C844.239 285.912 841.911 304.745 841.911 323.79C841.911 349.183 848.471 368.651 861.591 382.194C874.922 395.526 894.073 402.191 919.043 402.191C931.548 402.191 943.259 400.107 954.175 395.937L955.229 395.526C966.298 391.016 975.879 384.918 983.97 377.23L984.748 376.481C993.212 368.229 999.772 358.494 1004.43 347.279C1009.14 336.414 1011.57 324.556 1011.72 311.705L1011.73 310.459ZM969.782 314.268C969.782 308.221 968.805 303.114 966.893 298.913L966.705 298.51L966.693 298.484L966.683 298.458C964.946 294.212 962.587 290.717 959.616 287.949L959.014 287.405L958.989 287.383L958.966 287.359C956.097 284.491 952.689 282.337 948.729 280.896L947.93 280.618C943.592 279.172 939.043 278.447 934.279 278.447C926.157 278.447 919.014 280.009 912.825 283.104L912.812 283.109L912.801 283.115C906.574 286.021 901.291 289.959 896.942 294.929C892.589 299.904 889.266 305.715 886.978 312.371C884.687 319.034 883.541 326.013 883.541 333.312L883.551 334.415C883.764 345.72 887.284 354.257 893.994 360.178C900.98 366.341 909.833 369.45 920.631 369.45V370.45L919.604 370.44C909.4 370.254 900.869 367.279 894.013 361.514L893.333 360.928C886.363 354.778 882.769 345.947 882.551 334.435L882.541 333.312C882.541 326.369 883.564 319.705 885.609 313.319L886.032 312.046C888.36 305.274 891.746 299.349 896.189 294.271C900.494 289.351 905.693 285.423 911.785 282.489L912.378 282.209C918.726 279.035 926.027 277.447 934.279 277.447C939.146 277.447 943.801 278.188 948.245 279.669C952.689 281.15 956.499 283.478 959.673 286.652C963.059 289.615 965.704 293.424 967.608 298.079C969.724 302.523 970.782 307.919 970.782 314.268L970.768 315.77C970.619 323.246 969.353 330.257 966.973 336.804C964.433 343.575 960.942 349.5 956.498 354.579C952.054 359.446 946.765 363.362 940.628 366.324C934.491 369.075 927.825 370.45 920.631 370.45V369.45C927.688 369.45 934.208 368.103 940.203 365.418C946.225 362.51 951.407 358.672 955.76 353.905C960.11 348.929 963.536 343.119 966.033 336.463C968.53 329.598 969.782 322.202 969.782 314.268ZM1012.72 311.717C1012.57 324.689 1010.12 336.68 1005.35 347.677C1000.79 358.653 994.42 368.234 986.244 376.41L985.446 377.197C977.095 385.335 967.144 391.752 955.606 396.452L955.597 396.456C944.256 400.949 932.068 403.191 919.043 403.191C893.897 403.191 874.457 396.475 860.884 382.901L860.873 382.891C847.517 369.104 840.911 349.351 840.911 323.79C840.911 304.663 843.25 285.748 847.925 267.048C852.606 248.322 859.952 231.599 869.97 216.893C880 202.168 892.806 190.217 908.379 181.044C924.009 171.837 942.707 167.257 964.434 167.257C976.175 167.257 986.263 168.354 994.679 170.566L995.488 170.784C1003.76 173.059 1010.86 176.043 1016.78 179.751L1017.35 180.112L1017.89 180.462L1012.48 216.304L1011.17 215.432C1003.88 210.57 996.206 207.088 988.144 204.978L987.362 204.777L987.352 204.774L987.34 204.771C978.963 202.468 970.376 201.315 961.577 201.315C951.54 201.315 942.473 203.092 934.361 206.628L934.35 206.633C926.434 209.966 919.458 214.755 913.414 221.008C907.357 227.274 902.23 234.698 898.04 243.288C894.357 250.838 891.399 258.96 889.167 267.655C903.8 252.777 922.353 245.341 944.754 245.341C954.571 245.341 963.559 246.727 971.711 249.512C979.827 252.009 986.856 255.824 992.78 260.964L993.35 261.466C999.396 266.864 1004.13 273.656 1007.57 281.82C1011.02 290.01 1012.73 299.564 1012.73 310.459L1012.72 311.717Z" fill="#000"/>
<path d="M1201.67 170.431L1195.69 201.02L1195.58 201.185L1064.49 399.569L1064.19 400.018H1018.3L1148.12 205.76H1042.1L1049.83 170.431H1201.67ZM1050.64 171.431L1043.34 204.76H1149.99L1020.17 399.018H1063.65L1194.75 200.633L1200.46 171.431H1050.64Z" fill="#000"/>
<path d="M811.917 322.838C811.917 311.199 810.118 300.936 806.521 292.049C803.135 282.95 798.268 275.331 791.92 269.194C785.975 263.25 778.839 258.695 770.511 255.53L769.701 255.229C761.025 252.054 751.396 250.467 740.815 250.467C731.293 250.467 723.464 251.631 717.327 253.959L716.188 254.399C710.56 256.619 705.86 259.117 702.091 261.895V204.125H800.49V171.431H669.08V293.953H697.647L698.18 293.322C700.92 290.185 704.868 287.327 710.026 284.748C715.528 281.997 722.724 280.622 731.611 280.622L732.832 280.633C745.363 280.857 755.113 284.557 762.083 291.731C769.489 299.138 773.192 309.93 773.192 324.107L773.18 325.39C772.923 338.567 768.696 349.461 760.496 358.071C752.243 366.747 740.393 371.085 724.945 371.085V370.085C740.203 370.085 751.758 365.806 759.771 357.382C768.037 348.703 772.192 337.639 772.192 324.107C772.192 310.536 768.761 300.258 762.037 293.119L761.376 292.438L761.37 292.434L761.365 292.428C754.407 285.265 744.538 281.622 731.611 281.622C722.815 281.622 715.789 282.985 710.474 285.643C705.05 288.354 701.056 291.344 698.424 294.584L698.123 294.953H668.08V170.431H801.49V205.125H703.091V259.968C706.919 257.392 711.551 255.08 716.973 253.023C723.261 250.638 731.222 249.467 740.815 249.467C751.496 249.467 761.243 251.069 770.044 254.289C778.842 257.508 786.371 262.235 792.615 268.476C799.075 274.72 804.016 282.46 807.448 291.674C811.103 300.703 812.917 311.098 812.917 322.838L812.911 323.957C812.782 335.484 810.646 346.034 806.492 355.595L806.493 355.596C802.42 365.456 796.627 373.934 789.114 381.018C781.599 388.103 772.486 393.566 761.792 397.416C751.296 401.272 739.539 403.191 726.532 403.191C712.328 403.191 700.172 401.796 690.084 398.984L689.114 398.708L689.091 398.7C679.078 395.505 670.424 391.555 663.141 386.843L662.684 386.548V348.51L664.266 349.64C671.606 354.883 680.113 359.611 689.793 363.819C699.368 367.982 711.075 370.085 724.945 370.085V371.085L723.642 371.079C710.24 370.951 698.824 368.836 689.395 364.736C679.661 360.504 671.09 355.743 663.684 350.453V386.004C670.878 390.659 679.449 394.574 689.395 397.748C699.234 400.618 711.16 402.098 725.17 402.188L726.532 402.191C739.037 402.191 750.35 400.405 760.472 396.83L761.448 396.479C772.029 392.67 781.021 387.273 788.428 380.29C795.834 373.307 801.548 364.948 805.568 355.214C809.668 345.784 811.783 335.361 811.911 323.945L811.917 322.838Z" fill="#000"/>
<path d="M1383.53 247.928C1383.53 235.323 1385.77 224.069 1390.29 214.185L1390.29 214.176C1395 204.117 1401.22 195.645 1408.94 188.776C1416.66 181.707 1425.55 176.352 1435.61 172.713L1435.62 172.71C1445.89 169.073 1456.69 167.257 1468.01 167.257C1495.95 167.257 1517.42 175.903 1532.25 193.313C1547.28 210.708 1554.71 236.59 1554.71 270.782C1554.71 289.686 1552.7 307.227 1548.65 323.398C1544.82 339.371 1538.74 353.346 1530.41 365.309C1522.28 377.079 1511.79 386.39 1498.95 393.234L1498.94 393.24C1486.08 399.888 1470.89 403.192 1453.41 403.192C1441.71 403.192 1431.27 402.129 1422.08 399.992L1422.06 399.988L1422.05 399.985C1413.08 397.637 1405.37 394.426 1398.92 390.34L1398.45 390.046V354.987L1399.98 355.956C1407.94 360.982 1416.31 364.643 1425.1 366.943C1434.12 369.251 1443.03 370.402 1451.82 370.402V371.402C1443.49 371.402 1435.07 370.38 1426.55 368.334L1424.84 367.911C1415.96 365.583 1407.49 361.88 1399.45 356.802V389.495C1405.8 393.516 1413.42 396.69 1422.3 399.018C1430.83 401.001 1440.48 402.056 1451.24 402.18L1453.41 402.192C1470.22 402.192 1484.85 399.113 1497.29 392.957L1498.48 392.353C1511.18 385.581 1521.55 376.376 1529.59 364.737C1537.84 352.887 1543.87 339.026 1547.68 323.155C1551.58 307.576 1553.59 290.705 1553.71 272.544L1553.71 270.782C1553.71 236.713 1546.31 211.108 1531.49 193.968C1517.12 177.095 1496.39 168.526 1469.31 168.263L1468.01 168.257C1456.8 168.257 1446.11 170.056 1435.95 173.653C1426.01 177.251 1417.23 182.541 1409.61 189.523C1401.99 196.295 1395.85 204.654 1391.2 214.6L1390.79 215.516C1386.62 225.029 1384.53 235.833 1384.53 247.928C1384.53 260.624 1386.54 271.734 1390.56 281.257C1394.58 290.779 1399.98 298.714 1406.75 305.062C1413.52 311.411 1421.46 316.173 1430.56 319.347C1439.58 322.422 1448.99 324.007 1458.81 324.104L1459.76 324.107C1470.97 324.107 1481.24 322.098 1490.55 318.077C1500.07 314.057 1508.43 307.602 1515.62 298.715C1514.57 309.507 1512.45 319.347 1509.28 328.234L1508.97 329.064C1505.84 337.604 1501.7 345.051 1496.58 351.405L1496.1 351.997C1491.1 358.063 1484.91 362.839 1477.53 366.324L1476.84 366.637C1469.59 369.814 1461.25 371.402 1451.82 371.402V370.402C1461.44 370.402 1469.87 368.73 1477.12 365.414C1484.6 361.88 1490.82 357.003 1495.8 350.781L1495.8 350.777C1501.01 344.315 1505.19 336.692 1508.33 327.897C1511.16 319.995 1513.13 311.319 1514.27 301.866C1507.48 309.579 1499.7 315.295 1490.94 318.994L1490.94 318.995C1481.5 323.075 1471.1 325.107 1459.76 325.107C1449.5 325.107 1439.65 323.504 1430.23 320.293L1430.23 320.291C1421 317.073 1412.94 312.24 1406.07 305.792C1399.18 299.338 1393.71 291.282 1389.64 281.646C1385.56 271.975 1383.53 260.728 1383.53 247.928ZM1511.45 246.658C1511.45 231.602 1507.38 220.257 1499.37 212.459L1499.36 212.45C1491.33 204.412 1480.8 200.363 1467.69 200.363C1461.88 200.363 1456.28 201.295 1450.89 203.16L1450.89 203.161C1445.75 205.014 1441.11 207.896 1436.98 211.815L1436.25 212.561C1432.66 216.345 1429.69 220.96 1427.35 226.42C1425.09 232.196 1423.94 239.041 1423.94 246.976C1423.94 254.703 1425.09 261.448 1427.36 267.23C1429.63 272.822 1432.73 277.568 1436.64 281.483L1437.38 282.169C1441.12 285.543 1445.3 288.097 1449.94 289.838C1455.12 291.704 1460.41 292.636 1465.79 292.636V293.636L1464.76 293.625C1459.61 293.513 1454.56 292.565 1449.6 290.779C1444.52 288.875 1439.97 286.018 1435.95 282.209C1431.93 278.188 1428.76 273.321 1426.43 267.607C1424.1 261.682 1422.94 254.805 1422.94 246.976C1422.94 238.935 1424.1 231.951 1426.43 226.026C1428.97 220.102 1432.25 215.129 1436.27 211.108C1440.5 207.088 1445.26 204.125 1450.55 202.221C1456.06 200.316 1461.77 199.363 1467.69 199.363L1468.94 199.376C1481.7 199.626 1492.08 203.748 1500.07 211.743C1508.32 219.784 1512.45 231.422 1512.45 246.658C1512.45 254.488 1511.18 261.365 1508.64 267.29C1506.31 273.215 1503.03 278.188 1498.8 282.209C1494.57 286.018 1489.6 288.875 1483.88 290.779L1482.81 291.125C1477.41 292.799 1471.74 293.636 1465.79 293.636V292.636C1472.04 292.636 1477.96 291.699 1483.57 289.83C1489.16 287.967 1494.01 285.177 1498.13 281.466C1502.24 277.558 1505.43 272.717 1507.71 266.925L1507.72 266.91L1507.72 266.896C1510.2 261.12 1511.45 254.381 1511.45 246.658Z" fill="#000"/>
<path d="M229.977 0V20.6289H225.848V0H229.977Z" fill="#000"/>
<path d="M387.317 0V20.6289H383.188V0H387.317Z" fill="#000"/>
<path d="M544.653 0V20.6289H540.524V0H544.653Z" fill="#000"/>
<path d="M701.994 0V20.6289H697.865V0H701.994Z" fill="#000"/>
<path d="M859.325 0V20.6289H855.196V0H859.325Z" fill="#000"/>
<path d="M1016.67 0V20.6289H1012.54V0H1016.67Z" fill="#000"/>
<path d="M1174 0V20.6289H1169.87V0H1174Z" fill="#000"/>
<path d="M1331.34 0V20.6289H1327.21V0H1331.34Z" fill="#000"/>
<path d="M229.977 129.018V139.332H225.848V129.018H229.977Z" fill="#000"/>
<path d="M303.392 129.018V139.332H299.263V129.018H303.392Z" fill="#000"/>
<path d="M376.819 129.018V139.332H372.69V129.018H376.819Z" fill="#000"/>
<path d="M1037.64 129.018V139.332H1033.51V129.018H1037.64Z" fill="#000"/>
<path d="M1111.07 129.018V139.332H1106.94V129.018H1111.07Z" fill="#000"/>
<path d="M1184.49 129.018V139.332H1180.36V129.018H1184.49Z" fill="#000"/>
<path d="M1257.92 129.018V139.332H1253.79V129.018H1257.92Z" fill="#000"/>
<path d="M1331.33 129.018V139.332H1327.21V129.018H1331.33Z" fill="#000"/>
<path d="M450.243 129.018V139.332H446.114V129.018H450.243Z" fill="#000"/>
<path d="M523.676 129.018V139.332H519.547V129.018H523.676Z" fill="#000"/>
<path d="M597.095 129.018V139.332H592.966V129.018H597.095Z" fill="#000"/>
<path d="M670.527 129.018V139.332H666.398V129.018H670.527Z" fill="#000"/>
<path d="M743.946 129.018V139.332H739.817V129.018H743.946Z" fill="#000"/>
<path d="M817.374 129.018V139.332H813.245V129.018H817.374Z" fill="#000"/>
<path d="M181.072 103.051L1376.11 103.051V107.18L181.072 107.18V103.051Z" fill="#000"/>
<path d="M181.072 37.2246L1376.11 37.2247V41.3536L181.072 41.3535V37.2246Z" fill="#000"/>
<path d="M890.793 129.018V139.332H886.664V129.018H890.793Z" fill="#000"/>
<path d="M964.221 129.018V139.332H960.092V129.018H964.221Z" fill="#000"/>
<path d="M825.354 58.4287L837.292 79.1049H813.417L825.354 58.4287Z" fill="#000"/>
</svg>
