<svg width="341" height="519" viewBox="0 0 341 519" fill="none" xmlns="http://www.w3.org/2000/svg">
<path d="M326.212 516.711V518.412H259.206V516.711H326.212ZM338.617 504.306V14.1064C338.617 7.25514 333.063 1.70119 326.212 1.70117H259.206C116.99 1.70122 1.70125 116.99 1.70117 259.206C1.70117 401.422 116.99 516.711 259.206 516.711V518.412C116.05 518.412 0 402.362 0 259.206C8.0581e-05 116.051 116.051 4.27222e-05 259.206 0H326.212L326.576 0.00488281C334.199 0.198108 340.318 6.43747 340.318 14.1064V504.306L340.313 504.67C340.123 512.171 334.078 518.218 326.576 518.408L326.212 518.412V516.711C333.063 516.711 338.617 511.157 338.617 504.306Z" fill="#000"/>
<path d="M163.565 214.607L202.597 146.045H209.863L170.831 214.607H163.565ZM181.637 164.769C181.637 167.688 181.265 170.296 180.519 172.594C179.774 174.83 178.718 176.724 177.352 178.276C176.048 179.767 174.495 180.916 172.694 181.723C170.956 182.53 169.061 182.934 167.012 182.934C164.9 182.934 162.944 182.562 161.143 181.816C159.404 181.009 157.883 179.86 156.579 178.37C155.275 176.879 154.25 175.047 153.505 172.873C152.759 170.638 152.387 168.06 152.387 165.142C152.387 162.223 152.759 159.645 153.505 157.41C154.25 155.112 155.275 153.187 156.579 151.634C157.883 150.082 159.404 148.902 161.143 148.094C162.944 147.287 164.9 146.883 167.012 146.883C169.061 146.883 170.956 147.287 172.694 148.094C174.495 148.84 176.048 149.957 177.352 151.448C178.718 152.938 179.774 154.801 180.519 157.037C181.265 159.273 181.637 161.85 181.637 164.769ZM159.466 164.955C159.466 169.365 160.119 172.47 161.423 174.271C162.789 176.072 164.652 176.972 167.012 176.972C169.31 176.972 171.142 176.072 172.508 174.271C173.874 172.47 174.558 169.365 174.558 164.955C174.558 160.546 173.874 157.441 172.508 155.64C171.142 153.839 169.31 152.938 167.012 152.938C164.652 152.938 162.789 153.839 161.423 155.64C160.119 157.441 159.466 160.546 159.466 164.955ZM221.135 195.51C221.135 198.429 220.762 201.037 220.017 203.335C219.272 205.571 218.247 207.465 216.943 209.017C215.639 210.57 214.086 211.75 212.285 212.557C210.484 213.303 208.559 213.675 206.51 213.675C204.398 213.675 202.442 213.303 200.641 212.557C198.902 211.75 197.38 210.601 196.076 209.111C194.772 207.62 193.747 205.788 193.002 203.614C192.319 201.379 191.977 198.801 191.977 195.883C191.977 192.964 192.319 190.386 193.002 188.151C193.747 185.853 194.772 183.959 196.076 182.468C197.38 180.916 198.902 179.736 200.641 178.928C202.442 178.121 204.398 177.717 206.51 177.717C208.559 177.717 210.484 178.121 212.285 178.928C214.086 179.674 215.639 180.792 216.943 182.282C218.247 183.773 219.272 185.636 220.017 187.871C220.762 190.045 221.135 192.591 221.135 195.51ZM206.51 183.679C204.212 183.679 202.38 184.58 201.013 186.381C199.709 188.182 199.057 191.287 199.057 195.696C199.057 200.106 199.709 203.211 201.013 205.012C202.38 206.813 204.212 207.713 206.51 207.713C208.807 207.713 210.67 206.813 212.099 205.012C213.527 203.211 214.241 200.106 214.241 195.696C214.241 191.287 213.527 188.182 212.099 186.381C210.67 184.58 208.807 183.679 206.51 183.679Z" fill="#000"/>
<path d="M146.365 195.417C146.365 198.398 145.744 201.099 144.502 203.521C143.322 205.881 141.677 207.9 139.565 209.576C137.516 211.191 135.032 212.433 132.113 213.303C129.256 214.172 126.151 214.607 122.797 214.607C119.32 214.607 116.121 214.203 113.202 213.396C110.346 212.526 107.862 211.284 105.75 209.669C103.639 207.993 101.993 206.005 100.813 203.708C99.6329 201.348 99.043 198.677 99.043 195.696C99.043 191.411 100.223 187.778 102.583 184.797C105.005 181.816 108.234 179.612 112.271 178.183C108.917 176.941 106.278 175.078 104.353 172.594C102.428 170.048 101.465 166.88 101.465 163.092C101.465 160.36 101.993 157.938 103.049 155.826C104.104 153.715 105.595 151.945 107.52 150.516C109.445 149.026 111.681 147.908 114.227 147.163C116.835 146.418 119.692 146.045 122.797 146.045C125.778 146.045 128.573 146.418 131.181 147.163C133.79 147.846 136.056 148.902 137.982 150.33C139.907 151.758 141.397 153.528 142.453 155.64C143.571 157.689 144.13 160.111 144.13 162.906C144.13 166.694 143.136 169.892 141.149 172.501C139.162 175.047 136.522 176.941 133.231 178.183C137.205 179.55 140.373 181.692 142.732 184.611C145.154 187.468 146.365 191.07 146.365 195.417ZM122.797 174.83C126.524 174.83 129.598 173.898 132.02 172.035C134.504 170.11 135.746 167.47 135.746 164.117C135.746 160.763 134.504 158.155 132.02 156.292C129.598 154.367 126.524 153.404 122.797 153.404C120.934 153.404 119.226 153.653 117.674 154.149C116.121 154.646 114.755 155.36 113.575 156.292C112.395 157.161 111.464 158.279 110.78 159.645C110.159 160.95 109.849 162.44 109.849 164.117C109.849 165.794 110.159 167.315 110.78 168.681C111.464 169.986 112.395 171.103 113.575 172.035C114.755 172.904 116.121 173.588 117.674 174.084C119.226 174.581 120.934 174.83 122.797 174.83ZM122.797 207.247C124.909 207.247 126.865 206.968 128.666 206.409C130.529 205.788 132.144 204.95 133.51 203.894C134.876 202.776 135.932 201.41 136.677 199.795C137.423 198.18 137.795 196.348 137.795 194.299C137.795 192.25 137.423 190.418 136.677 188.803C135.932 187.188 134.876 185.853 133.51 184.797C132.144 183.679 130.529 182.841 128.666 182.282C126.865 181.661 124.909 181.35 122.797 181.35C120.562 181.35 118.512 181.661 116.649 182.282C114.848 182.841 113.265 183.679 111.898 184.797C110.532 185.853 109.476 187.188 108.731 188.803C107.986 190.418 107.613 192.25 107.613 194.299C107.613 196.348 107.986 198.18 108.731 199.795C109.476 201.41 110.532 202.776 111.898 203.894C113.265 204.95 114.848 205.788 116.649 206.409C118.512 206.968 120.562 207.247 122.797 207.247Z" fill="#000"/>
<path d="M64.3786 213.675H55.2494L83.7547 154.894H49.6602V146.883H92.6976V154.428L64.3786 213.675Z" fill="#000"/>
<path d="M100.554 127.676C100.554 130.181 102.585 132.212 105.09 132.212C107.595 132.212 109.626 130.181 109.626 127.676C109.626 125.171 107.595 123.14 105.09 123.14C102.585 123.14 100.554 125.171 100.554 127.676ZM318.746 25.5381V24.6876L270.379 24.6876V25.5381V26.3886L318.746 26.3886V25.5381ZM318.746 40.2507V39.4002L270.379 39.4002V40.2507V41.1012L318.746 41.1012V40.2507ZM318.746 54.9633V54.1128L270.379 54.1128V54.9633V55.8138L318.746 55.8138V54.9633ZM318.746 69.6759V68.8254L270.379 68.8254V69.6759V70.5264L318.746 70.5264V69.6759ZM318.746 84.3885V83.538L270.379 83.538V84.3885V85.239L318.746 85.239V84.3885ZM318.746 99.1011V98.2506L270.379 98.2506V99.1011V99.9516L318.746 99.9516V99.1011ZM318.746 113.814V112.963L270.379 112.963V113.814V114.664L318.746 114.664V113.814ZM318.746 127.676V126.825L105.09 126.825L105.09 127.676L105.09 128.526L318.746 128.526V127.676ZM318.746 143.239V142.388L270.379 142.388V143.239V144.089L318.746 144.089V143.239ZM318.746 157.951V157.101H270.379V157.951V158.802H318.746V157.951ZM318.746 172.664V171.814H270.379V172.664V173.515H318.746V172.664ZM318.746 187.377V186.526H270.379V187.377V188.227H318.746V187.377ZM318.746 202.089V201.239H270.379V202.089V202.94H318.746V202.089ZM318.746 216.802V215.951H270.379V216.802V217.652H318.746V216.802ZM318.746 231.514V230.664H270.379V231.514V232.365H318.746V231.514ZM318.746 246.227V245.377H270.379V246.227V247.078H318.746V246.227ZM318.746 260.94V260.089H270.379V260.94V261.79H318.746V260.94ZM318.746 275.652V274.802H270.379V275.652V276.503H318.746V275.652ZM318.746 290.365V289.514H270.379V290.365V291.215H318.746V290.365ZM318.746 305.077V304.227H270.379V305.077V305.928H318.746V305.077ZM318.746 319.79V318.94H270.379V319.79V320.641H318.746V319.79ZM318.746 334.503V333.652H270.379V334.503V335.353H318.746V334.503ZM318.746 349.215V348.365H270.379V349.215V350.066H318.746V349.215ZM318.746 363.928V363.077H270.379V363.928V364.778H318.746V363.928ZM318.746 378.64V377.79H270.379V378.64V379.491H318.746V378.64ZM318.746 393.353V392.502H270.379V393.353V394.204H318.746V393.353ZM318.746 408.066V407.215H270.379V408.066V408.916H318.746V408.066ZM318.746 422.778V421.928H270.379V422.778V423.629H318.746V422.778ZM318.746 437.491V436.64H270.379V437.491V438.341H318.746V437.491ZM318.746 452.203V451.353H270.379V452.203V453.054H318.746V452.203ZM318.746 466.916V466.065H270.379V466.916V467.766H318.746V466.916ZM318.746 481.629V480.778H270.379V481.629V482.479H318.746V481.629ZM318.746 496.341V495.491H270.379V496.341V497.192H318.746V496.341Z" fill="#000"/>
</svg>
